<?xml version="1.0" standalone="no"?>
<!DOCTYPE svg PUBLIC "-//W3C//DTD SVG 20010904//EN"
 "http://www.w3.org/TR/2001/REC-SVG-20010904/DTD/svg10.dtd">
<svg version="1.0" xmlns="http://www.w3.org/2000/svg"
 width="256.000000pt" height="256.000000pt" viewBox="0 0 256.000000 256.000000"
 preserveAspectRatio="xMidYMid meet">
<metadata>
Created by potrace 1.16, written by Peter Selinger 2001-2019
</metadata>
<g transform="translate(0.000000,256.000000) scale(0.100000,-0.100000)"
fill="#6C2B6F" stroke="none">
<path d="M1106 2538 c-8 -13 -36 -70 -61 -128 -52 -117 -65 -135 -103 -145
-14 -3 -60 -22 -103 -42 l-78 -35 -117 45 c-97 37 -123 43 -148 36 -19 -5 -67
-45 -124 -102 -110 -113 -111 -115 -51 -268 22 -57 38 -113 35 -124 -9 -37
-78 -200 -91 -213 -6 -7 -65 -38 -131 -68 -65 -30 -122 -60 -126 -67 -13 -21
-10 -291 4 -309 7 -8 65 -39 128 -67 109 -49 150 -74 150 -92 0 -5 19 -52 41
-104 l41 -96 -46 -120 c-25 -66 -46 -132 -46 -147 0 -39 183 -222 222 -222 15
0 80 20 144 45 64 25 121 45 127 45 6 0 61 -21 123 -46 l111 -46 53 -116 c28
-65 59 -125 67 -134 14 -16 36 -18 164 -18 173 0 152 -15 224 150 52 117 65
135 103 145 14 3 60 22 103 42 l78 35 120 -46 c67 -25 135 -46 153 -46 27 0
46 14 125 93 77 77 93 98 93 124 0 17 -21 86 -46 154 -40 103 -45 127 -36 148
5 14 25 62 42 106 17 44 38 86 45 94 7 7 62 35 120 61 59 26 116 55 126 64 17
14 19 32 19 159 0 99 -4 148 -12 159 -7 9 -64 39 -127 67 -112 50 -151 74
-151 94 0 5 -18 52 -41 103 l-41 93 46 122 c25 67 46 133 46 148 0 38 -184
221 -222 221 -14 0 -78 -20 -142 -45 -64 -25 -122 -45 -128 -45 -6 0 -62 21
-124 46 l-112 46 -52 119 c-29 65 -60 125 -70 134 -13 12 -45 15 -163 15 -141
0 -147 -1 -161 -22z m202 -470 c17 -17 15 -46 -5 -56 -10 -5 -53 -12 -96 -16
-227 -18 -440 -157 -560 -366 -80 -140 -109 -357 -69 -518 27 -106 68 -190
134 -277 l53 -70 3 61 c3 70 29 107 60 88 14 -9 18 -32 22 -120 8 -162 15
-154 -134 -154 -114 0 -126 2 -136 19 -13 25 -13 27 6 45 10 10 33 16 65 16
l49 0 -48 63 c-68 87 -97 141 -134 249 -31 88 -32 100 -33 243 0 130 3 160 23
225 84 266 272 460 528 544 106 35 249 47 272 24z m682 -172 c6 -8 10 -25 8
-38 -3 -21 -9 -23 -65 -26 l-62 -3 49 -67 c60 -82 101 -164 131 -262 21 -64
24 -96 24 -220 0 -166 -16 -236 -86 -370 -125 -241 -374 -408 -636 -427 -88
-6 -113 2 -113 38 0 26 24 35 110 42 288 24 537 231 627 523 14 46 18 91 18
199 -1 127 -3 148 -29 220 -31 91 -62 148 -118 219 l-38 49 0 -55 c0 -67 -17
-94 -53 -84 -24 6 -27 11 -27 50 0 23 -3 77 -6 117 -9 105 -5 109 140 109 87
0 116 -3 126 -14z m-636 -234 c33 -65 74 -81 146 -55 l50 18 36 -36 36 -36
-18 -51 c-17 -48 -17 -52 -1 -89 14 -29 28 -42 62 -57 l45 -18 0 -54 0 -54
-45 -22 c-33 -16 -48 -31 -60 -60 -14 -36 -14 -43 2 -89 l18 -49 -36 -36 -36
-36 -51 18 c-48 17 -53 17 -86 1 -25 -11 -43 -31 -58 -62 -22 -45 -22 -45 -75
-45 l-53 0 -24 48 c-33 65 -74 81 -146 55 l-50 -18 -36 36 -36 36 18 51 c17
48 17 52 1 89 -14 29 -28 42 -62 57 l-45 18 0 54 0 54 45 22 c34 16 48 31 60
61 15 36 14 43 -1 84 l-18 46 41 38 41 37 45 -16 c43 -15 48 -15 81 1 25 11
43 31 58 62 22 45 22 45 75 45 l53 0 24 -48z"/>
<path d="M1219 1383 c-78 -48 -77 -160 1 -207 76 -44 180 16 180 104 0 89
-106 150 -181 103z"/>
</g>
</svg>
